HIERARCHY
ROOT root
{
	OFFSET 0.000000 0.000000 0.000000
	CHANNELS 6 Xposition Yposition Zposition Zrotation Yrotation Xrotation
	JOINT lhip
	{
		OFFSET 0.058581 -0.082280 -0.017664
		CHANNELS 3 Zrotation Yrotation Xrotation
		JOINT lknee
		{
			OFFSET 0.043451 -0.386469 0.008037
			CHANNELS 3 Zrotation Yrotation Xrotation
			JOINT lankle
			{
				OFFSET -0.014790 -0.426874 -0.037428
				CHANNELS 3 Zrotation Yrotation Xrotation
				JOINT ltoe
				{
					OFFSET 0.041054 -0.060286 0.122042
					CHANNELS 3 Zrotation Yrotation Xrotation
					End Site
					{
						OFFSET 0.000000 0.000000 0.000000
					}
				}
			}
		}
	}
	JOINT rhip
	{
		OFFSET -0.060310 -0.090513 -0.013543
		CHANNELS 3 Zrotation Yrotation Xrotation
		JOINT rknee
		{
			OFFSET -0.043257 -0.383688 -0.004843
			CHANNELS 3 Zrotation Yrotation Xrotation
			JOINT rankle
			{
				OFFSET 0.019056 -0.420046 -0.034562
				CHANNELS 3 Zrotation Yrotation Xrotation
				JOINT rtoe
				{
					OFFSET -0.034840 -0.062106 0.130323
					CHANNELS 3 Zrotation Yrotation Xrotation
					End Site
					{
						OFFSET 0.000000 0.000000 0.000000
					}
				}
			}
		}
	}
	JOINT lowerback
	{
		OFFSET 0.004439 0.124404 -0.038385
		CHANNELS 3 Zrotation Yrotation Xrotation
		JOINT upperback
		{
			OFFSET 0.004488 0.137956 0.026820
			CHANNELS 3 Zrotation Yrotation Xrotation
			JOINT chest
			{
				OFFSET -0.002265 0.056032 0.002855
				CHANNELS 3 Zrotation Yrotation Xrotation
				JOINT lowerneck
				{
					OFFSET -0.013390 0.211636 -0.033468
					CHANNELS 3 Zrotation Yrotation Xrotation
					JOINT upperneck
					{
						OFFSET 0.010113 0.088937 0.050410
						CHANNELS 3 Zrotation Yrotation Xrotation
						End Site
						{
							OFFSET 0.000000 0.000000 0.000000
						}
					}
				}
				JOINT lclavicle
				{
					OFFSET 0.071702 0.114000 -0.018898
					CHANNELS 3 Zrotation Yrotation Xrotation
					JOINT lshoulder
					{
						OFFSET 0.122921 0.045205 -0.019046
						CHANNELS 3 Zrotation Yrotation Xrotation
						JOINT lelbow
						{
							OFFSET 0.255332 -0.015649 -0.022946
							CHANNELS 3 Zrotation Yrotation Xrotation
							JOINT lwrist
							{
								OFFSET 0.265709 0.012698 -0.007375
								CHANNELS 3 Zrotation Yrotation Xrotation
								End Site
								{
									OFFSET 0.000000 0.000000 0.000000
								}
							}
						}
					}
				}
				JOINT rclavicle
				{
					OFFSET -0.082954 0.112472 -0.023707
					CHANNELS 3 Zrotation Yrotation Xrotation
					JOINT rshoulder
					{
						OFFSET -0.113228 0.046853 -0.008472
						CHANNELS 3 Zrotation Yrotation Xrotation
						JOINT relbow
						{
							OFFSET -0.260127 -0.014369 -0.031269
							CHANNELS 3 Zrotation Yrotation Xrotation
							JOINT rwrist
							{
								OFFSET -0.269108 0.006794 -0.006027
								CHANNELS 3 Zrotation Yrotation Xrotation
								End Site
								{
									OFFSET 0.000000 0.000000 0.000000
								}
							}
						}
					}
				}
			}
		}
	}
}
MOTION
Frames: 11
Frame Time: 0.033333
-0.594464 -0.339373 0.985151 175.447629 0.645533 79.500774 1.969700 -3.806004 -15.464360 -6.208039 -0.704616 44.242017 1.371051 10.317455 -10.470174 0.000000 -0.000000 0.000000 0.489500 -6.801819 13.493553 1.852159 1.337865 12.379758 -0.414580 -5.187060 -18.254635 0.000000 -0.000000 0.000000 4.317764 6.259547 17.001113 -0.792258 1.267413 0.070390 -1.464375 1.339749 6.289625 -1.688175 2.978414 6.035458 -3.427170 1.993988 16.366865 -28.542339 11.300027 -0.202518 -62.144850 -0.498129 5.518684 10.953766 -19.425742 5.382989 -6.864847 -2.049632 -10.654356 25.857321 -1.396690 2.305278 56.642700 6.581084 12.732724 -10.006589 19.506297 -2.548733 4.661044 2.948833 -6.460536 
-0.595109 -0.331531 0.984868 176.668911 0.010662 80.216302 1.310307 -4.691440 -17.028401 -5.676056 -0.632349 38.662591 1.467893 10.361928 -10.316265 0.000000 -0.000000 0.000000 0.076268 -6.634416 13.690010 1.891046 1.271522 11.742701 -0.414179 -6.354710 -18.424511 0.000000 -0.000000 0.000000 3.856696 6.381087 16.858456 -0.945891 0.746329 -0.113580 -1.594688 1.207946 5.915494 -1.184383 2.549758 6.691049 -3.435541 1.974033 15.973503 -28.435188 11.231940 0.208588 -61.556600 -0.358486 5.698589 10.908933 -18.947867 5.717308 -6.795044 -1.985954 -10.849196 25.713732 -1.451159 2.468539 56.817737 6.328309 13.013836 -10.313005 18.917381 -3.217127 4.185859 2.920505 -7.148624 
-0.595019 -0.322794 0.984021 177.148723 0.366787 80.829976 1.953237 -4.854865 -17.731056 -5.487017 -1.167809 31.726878 0.816777 9.611475 -9.198502 0.000000 -0.000000 0.000000 0.216871 -6.860083 13.700845 2.376983 1.194967 11.762461 -0.274060 -6.249454 -19.012756 0.000000 -0.000000 0.000000 4.381592 6.519742 16.892892 -0.922166 0.522430 -0.262885 -1.661040 1.220667 5.535449 -1.519470 3.030530 6.464030 -3.385713 1.017563 15.869543 -28.422661 10.605238 0.328630 -61.148967 -0.197415 6.071311 11.194111 -18.447235 5.708960 -6.679919 -1.923699 -10.615654 25.576674 -1.474833 2.738807 56.427604 6.181072 12.731240 -10.218286 19.129126 -3.363769 4.195979 2.901109 -7.523541 
-0.595404 -0.308525 0.981268 178.047110 0.102316 81.197935 1.496359 -4.531397 -17.441596 -4.497165 -1.750238 22.308215 -0.107709 8.726721 -7.971926 0.000000 -0.000000 0.000000 0.152837 -7.184786 14.652232 1.904323 1.301340 11.256863 -0.010304 -6.937577 -19.587693 0.000000 -0.000000 0.000000 4.115397 6.448157 17.111429 -1.065150 0.334341 -0.213786 -1.549921 1.142803 5.457039 -1.388738 3.096736 5.441692 -3.359014 0.148705 16.105478 -28.230171 10.234807 -0.251154 -60.843002 -0.763077 6.382486 11.495442 -18.106765 5.275226 -5.885374 -1.973559 -9.551631 25.579406 -1.432447 2.317281 56.207005 6.128479 12.941886 -10.093220 19.274075 -4.121531 3.853252 3.263478 -7.207702 
-0.596638 -0.299004 0.979119 178.339118 -0.079912 81.555819 1.079908 -4.266089 -16.985526 -3.777620 -2.376210 16.374953 -0.487031 8.464192 -7.076874 0.000000 -0.000000 0.000000 -0.012681 -7.045812 14.938832 1.858445 1.484134 11.242648 0.130048 -7.407776 -20.030712 0.000000 -0.000000 0.000000 4.004529 6.583744 17.032869 -1.084506 0.395023 -0.060469 -1.436486 1.069994 5.201661 -1.299250 3.325214 5.367830 -3.399061 -0.265308 16.183619 -28.245931 9.874816 -0.261358 -60.635625 -1.233310 6.578924 11.591068 -18.528671 4.841451 -5.787022 -1.762006 -9.216215 25.553540 -1.379653 2.200456 56.122355 6.025456 12.946585 -10.530140 19.437188 -4.472249 4.221723 3.230502 -7.055755 
-0.598180 -0.285810 0.975932 178.873093 -0.011688 82.016323 0.690949 -3.836480 -16.619457 -2.524048 -3.903078 9.730856 -0.978098 7.551830 -6.004501 0.000000 -0.000000 0.000000 0.037758 -7.189262 15.242991 1.685779 1.255505 11.444700 0.419571 -7.385903 -20.463671 0.000000 -0.000000 0.000000 4.179944 6.457325 17.162253 -1.179093 0.292918 -0.128994 -1.481781 1.073708 5.099378 -1.154744 3.703210 4.913039 -3.366021 -0.800206 16.554372 -28.033794 9.660725 -0.518193 -60.235433 -2.007161 6.796917 11.566296 -19.708391 4.012458 -5.678285 -2.063046 -9.175611 25.646100 -0.854815 2.035380 55.994222 6.207219 13.104357 -10.766077 19.215723 -5.049896 4.657317 3.390684 -6.499138 
-0.600810 -0.270644 0.973309 179.261832 -0.110522 82.538459 0.290574 -3.562371 -16.354495 -1.921010 -5.568537 4.972000 -1.234994 6.349154 -5.258800 0.000000 -0.000000 0.000000 -0.325133 -7.434097 15.619943 1.721294 0.889069 11.776532 0.524213 -7.532031 -20.624797 0.000000 -0.000000 0.000000 3.941815 6.395682 17.175052 -1.165052 0.151033 -0.178767 -1.366910 1.019864 4.832440 -0.887081 3.614102 4.689617 -3.468719 -1.244726 16.787621 -27.721947 9.497589 -0.636945 -60.099732 -2.619900 6.996367 11.581741 -21.360111 3.380758 -5.252805 -2.362855 -9.371153 25.573587 -0.618832 1.750496 56.067855 6.647321 13.034484 -10.792437 18.983004 -5.404442 4.814268 3.569600 -6.004683 
-0.603322 -0.254645 0.970867 179.261515 -0.398722 83.517364 0.054190 -3.702822 -16.798028 -2.039789 -5.584881 3.042678 -1.716214 5.655235 -4.686862 0.000000 -0.000000 0.000000 -0.464071 -6.915256 15.582982 1.275210 1.236834 12.033571 0.835090 -7.742464 -21.081516 0.000000 -0.000000 0.000000 3.275045 6.599661 16.380584 -0.978351 0.125355 0.056369 -1.265727 1.113572 4.524904 -0.632712 3.845194 4.729422 -3.372421 -1.509545 16.749975 -27.637623 9.297795 -0.286902 -59.635947 -3.326576 7.369058 12.029097 -24.151762 2.561688 -4.524950 -2.643169 -9.510710 25.730651 -0.067824 1.857803 56.060309 6.846882 13.312915 -11.310999 19.281134 -5.755812 4.772826 3.606298 -5.879755 
-0.605062 -0.235991 0.968554 179.319366 -0.342308 83.796877 0.272431 -3.503878 -16.687676 -2.659646 -5.236039 3.999499 -1.993437 4.981543 -4.065686 0.000000 -0.000000 0.000000 -0.911046 -7.223072 16.500386 1.241539 1.667466 12.252911 1.247780 -6.813956 -20.802965 0.000000 -0.000000 0.000000 2.852396 6.730933 16.504067 -0.765855 -0.146976 0.032100 -1.145780 1.237774 4.301653 -0.388428 3.880303 4.417925 -3.170939 -1.771620 16.894960 -27.217662 9.305232 -0.206390 -59.387029 -3.853993 7.512383 12.439356 -27.031526 2.639059 -4.255200 -3.242368 -9.269042 25.939184 0.006186 1.541461 56.271531 7.362958 13.259540 -11.653838 19.652737 -5.667033 5.046953 3.710812 -5.133021 
-0.610842 -0.210763 0.967066 179.221844 -0.277675 84.572894 0.027216 -3.977929 -16.807418 -2.469318 -4.375780 5.508028 -1.957788 4.888600 -1.945909 0.000000 -0.000000 0.000000 -1.372460 -7.124418 16.886733 0.991709 1.517763 13.074798 1.986200 -6.247142 -19.873626 0.000000 -0.000000 0.000000 2.601562 6.864565 16.179100 -0.497851 -0.232454 -0.127059 -1.024270 1.218433 4.020729 -0.292382 3.617033 4.196455 -3.319165 -1.793326 17.046033 -27.292282 9.262977 -0.346357 -58.716446 -4.499854 7.805716 12.845778 -30.129328 1.906159 -4.118304 -3.922439 -9.221304 26.181300 0.217991 1.452231 56.151995 7.600694 13.548015 -12.310678 20.569891 -6.399578 5.064691 4.073119 -4.734280 
-0.615663 -0.189157 0.968714 179.317093 -0.301525 84.946308 -0.204736 -4.119776 -16.381706 -2.620697 -4.203319 5.488708 -2.714308 4.839999 0.787028 0.000000 -0.000000 0.000000 -1.566100 -7.067405 17.155073 0.450026 1.200539 13.961908 2.836474 -5.963832 -18.276210 0.000000 -0.000000 0.000000 2.288163 7.049191 16.073711 -0.317858 -0.399609 -0.149404 -0.969309 1.222062 3.775595 -0.265354 3.494220 4.217975 -3.096369 -2.006590 17.142933 -26.973880 8.867163 -0.435935 -58.370958 -5.246471 8.118621 12.912529 -31.380420 1.568478 -3.434867 -4.317826 -9.502732 26.667408 0.052122 1.215037 56.180109 7.901770 13.638550 -12.824059 21.414156 -7.140783 4.662638 3.977682 -5.185051 
